<svg width="2581.33" height="746.667" viewBox="0 0 1936 560" xmlns="http://www.w3.org/2000/svg" xmlns:xlink="http://www.w3.org/1999/xlink" overflow="hidden"><path d="M53.8 0 60.2 0C58.1 1.3 55.1 2.5 53.2 0.3L53.8 0Z" stroke="#867650" stroke-width="0.09375" fill="#867650" opacity="1"/><path d="M60.2 0 62.8 0C64.9 1.3 67.9 2.4 69.9 0.3 73.6 1.6 77.6 2.3 81.4 3.6 96 8.8 108.3 19.8 115.3 33.7 121.7 46.1 123.3 60.6 121 74.3 117.8 91.9 106.4 107.8 90.8 116.7 77.5 124.4 61.1 126.4 46.2 122.6 30.1 118.6 15.9 107.6 8.1 92.9 3.9 85.7 2.2 77.4 0.4 69.3 1 64.8 1.1 60.2 0.9 55.6 2 46.7 4.4 37.8 9.1 30 16.3 17.8 27.9 8 41.4 3.6 45.3 2.3 49.4 1.7 53.2 0.3 55.1 2.5 58.1 1.3 60.2 0Z" stroke="#512873" stroke-width="0.09375" fill="#512873" opacity="1"/><path d="M62.8 0 69.3 0 69.9 0.3C67.9 2.4 64.9 1.3 62.8 0Z" stroke="#867650" stroke-width="0.09375" fill="#867650" opacity="1"/><path d="M0 56.5 0.9 55.6C1.1 60.2 1 64.8 0.4 69.3L0 68.2 0 56.5Z" stroke="#867650" stroke-width="0.09375" fill="#867650" opacity="1"/><path d="M309.5 135.7C334.5 134.1 359.8 137.2 383.5 145.4 409.9 154.2 434.1 169.5 453.5 189.5 479.6 216.6 496.1 251.7 504.7 288.1 510.8 313.6 511.4 340.4 505.9 366.1 498.2 400.5 480.6 432.7 455.2 457.2 430.2 482.2 398.3 499.1 364.9 510.1 340.2 518.3 314.1 523 288 522.2 252.3 521.3 216.8 510 187.6 489.5 174.9 480.7 163.8 469.9 153.8 458.3 131.1 430.7 116.8 396.9 109.7 362.1 106 343 105.5 323.2 108 303.9 113.8 263.3 134.2 225.1 164.1 197.2 176.5 185.4 190.6 175.7 205.3 167.3 237.4 150 273 138.3 309.5 135.7M259.3 163.1C254.5 163.9 249.8 165.2 245.3 167.2 235 171.4 226.9 179.9 221.4 189.5 214.5 202.1 213.3 217.7 218.6 231 246.7 308.3 274.8 385.5 303 462.7 307.4 475 317.5 484.4 328.9 490.2 345.9 498.2 367.2 495.7 381.6 483.7 393.9 474.1 401.3 458.6 400.7 443 400.8 435.8 398.5 428.9 395.9 422.3 368.4 346.8 340.9 271.3 313.5 195.7 305.8 174.1 282 159.7 259.3 163.1M391.5 183C393.8 185.7 397.4 186.8 400.3 188.7 426.5 204.4 447 228.7 459.5 256.4 468.1 275.4 474.4 295.7 476.2 316.5 478.1 338.4 475.2 360.8 467.1 381.3 466.6 383.1 465.4 384.9 465.8 386.8 466.9 388.8 469.2 388.4 471.1 388.6 479.5 369.3 483.6 348.1 483.3 327 482.6 301.9 476 277.2 465.8 254.2 451.6 222.4 427.2 194.6 395.8 178.9 393.6 178.1 391.3 180.9 391.5 183M146.3 269.2C145 269.5 144.2 270.6 143.7 271.8 133.3 297.6 130.2 326.4 135.1 353.8 140.8 386.1 153.7 417.7 175.1 442.9 187.1 457.2 202.1 468.9 218.5 477.7 220 478.5 222.4 479.4 223.5 477.6 224.9 476.4 224.6 473.8 222.9 473.1 216.8 469.2 210.3 466 204.5 461.4 177.2 441.5 158.5 411.7 148.2 379.9 138.1 350.1 136 317.2 145.2 287 146.6 281.9 148.8 277.1 150.3 272 149.6 270.5 148.3 267.5 146.3 269.2Z" stroke="#512873" stroke-width="0.09375" fill="#512873" opacity="1"/><path d="M48.9 147C62 144.4 76.1 145.9 88.1 152 105.2 160.4 118 177.2 121.1 196 122.7 206.3 122 216.7 122.2 227 122.1 231.8 122.8 237 120.1 241.3 106.3 266.2 98.2 294.5 97.7 323 96.8 355 104.8 386.7 117.7 415.8 119.5 420 122.3 424.1 122.1 428.9 122.1 439 122.2 449 122.1 459 121.9 470.9 118.2 482.7 111.4 492.4 102.2 506 87.3 515.4 71.2 518 59.2 519.9 46.7 518.4 35.8 513.1 20.6 506.1 8.5 492.5 3.4 476.5 2.1 472.5 1.5 468.4 0.4 464.3 1.4 457.2 1 450.1 1 443 1 368.3 1 293.7 1 219 1 212.6 1.3 206.1 0.4 199.7 2.1 193.9 3 187.9 5.5 182.4 13.1 164.5 29.9 150.9 48.9 147Z" stroke="#512873" stroke-width="0.09375" fill="#512873" opacity="1"/><path d="M0 200.8 0.4 199.7C1.3 206.1 1 212.6 1 219 1 293.7 1 368.3 1 443 1 450.1 1.4 457.2 0.4 464.3L0 463.1 0 200.8Z" stroke="#867650" stroke-width="0.09375" fill="#867650" opacity="1"/><path d="M1511.9 226C1550 204.9 1597.7 202.4 1637.8 219.3 1667.8 231.7 1693 254.7 1708.8 282.9 1690.9 292.1 1673.1 301.8 1654.6 310 1644.7 293.2 1628.7 279.9 1610.3 273.5 1594.4 267.8 1576.8 267 1560.5 271.3 1540.8 276.3 1523 288.7 1511.4 305.5 1499.2 322.5 1493.8 344.2 1496.5 365 1498.7 384 1507.7 402.2 1521.5 415.5 1535.1 429.4 1553.9 438.1 1573.2 440 1594.1 442.3 1615.8 436.4 1632.8 423.9 1643 416.4 1651.3 406.6 1657.2 395.4 1675 404.8 1692.5 414.9 1711 422.8 1702.8 439.6 1690.3 454 1676.4 466.4 1661.2 479.3 1643.2 489.1 1624 494.8 1583.1 507 1536.8 500.6 1501.2 476.7 1471.4 457.2 1449.3 426.5 1440.3 392 1433 364.8 1433.9 335.4 1442.8 308.7 1454.3 273.7 1479.6 243.7 1511.9 226Z" stroke="#867650" stroke-width="0.09375" fill="#867650" opacity="1"/><path d="M946.3 209.3C966.8 209.4 987.2 209.4 1007.7 209.3 1007.5 244.3 1007.8 279.3 1007.6 314.4 1052.5 314.3 1097.5 314.3 1142.4 314.4 1142.3 279.6 1142.4 244.8 1142.3 210 1162.8 210 1183.4 209.8 1203.9 210.1 1204.3 263.8 1203.9 317.4 1204 371 1204 413.6 1204.2 456.1 1204 498.7 1183.4 498.7 1162.8 498.5 1142.3 498.7 1142.5 457.7 1142.2 416.7 1142.4 375.6 1097.5 375.7 1052.5 375.7 1007.6 375.6 1007.8 416.7 1007.5 457.7 1007.7 498.7 987.2 498.6 966.8 498.6 946.3 498.7 946.5 423.2 946.3 347.6 946.4 272 946.3 251.1 946.5 230.2 946.3 209.3Z" stroke="#867650" stroke-width="0.09375" fill="#867650" opacity="1"/><path d="M1224.7 210.3C1294.9 210.4 1365.1 210.4 1435.3 210.3 1435.3 228 1435.4 245.6 1435.3 263.3 1385.4 263.3 1335.5 263.4 1285.7 263.3 1285.6 285 1285.7 306.7 1285.6 328.4 1329.7 328.2 1373.7 328.5 1417.7 328.3 1417.5 346.8 1417.7 365.4 1417.7 384 1373.7 384.1 1329.7 384 1285.7 384 1285.7 422.6 1285.5 461.2 1285.7 499.7 1265.4 499.6 1245 499.6 1224.7 499.7 1224.7 403.2 1224.7 306.8 1224.7 210.3Z" stroke="#867650" stroke-width="0.09375" fill="#867650" opacity="1"/><path d="M1725.3 210.3C1745.8 210.4 1766.4 210.3 1787 210.3 1787.2 288.4 1786.9 366.6 1787.1 444.7 1836.7 444.7 1886.4 444.6 1936 444.8L1936 497.5C1922 497.9 1908 497.5 1894 497.6 1837.8 497.7 1781.5 497.5 1725.3 497.7 1725.4 401.9 1725.4 306.1 1725.3 210.3Z" stroke="#867650" stroke-width="0.09375" fill="#867650" opacity="1"/><path d="M620.3 310.3C627.6 310.4 635 310.4 642.3 310.3 642.5 336.7 642 363.1 642.5 389.5 645.2 387.1 646.9 384 649.4 381.4 658.6 371.4 672.6 366.8 686 367.3 701.5 366.7 716.9 374.5 726 387 735.4 399.5 739.1 415.5 739.1 431 739.1 449.2 734 468.5 720.6 481.6 710.6 492.4 695.7 498.4 681 497.7 665.1 498.1 648.7 489.9 641.1 475.6 640.7 475.5 639.9 475.2 639.6 475 639.2 481.6 638.4 488.1 638.4 494.7 632 494.7 625.6 494.6 619.2 494.7 619.7 483.8 619.9 472.9 620.4 462 620.3 411.4 620.5 360.8 620.3 310.3M674.3 385.1C666 386.3 658.2 390.4 652.6 396.6 645.4 404.6 641.8 415.4 642.4 426 642.9 436.6 640.7 447.8 645.1 457.8 647.8 464.3 652.2 470.1 658.1 473.9 668.8 481.2 683.4 481.7 694.8 476 704.6 471 710.9 461 713.7 450.6 716.8 438.8 717.1 426.2 713.8 414.4 711.1 403.9 704.7 394.1 695.1 388.9 688.7 385.7 681.4 384 674.3 385.1Z" stroke="#867650" stroke-width="0.09375" fill="#867650" opacity="1"/><path d="M749.1 369.3C757.4 369.4 765.7 369.4 773.9 369.3 782.2 391.9 790.5 414.4 798.8 437 802.7 447.3 806.2 457.8 809.3 468.4 810.7 467.1 811.5 465.4 811.9 463.6 816.7 446 823.1 429 828.8 411.7 832.5 400.7 836.2 389.7 839.9 378.7 841 375.6 841.7 372.3 843.3 369.4 851.2 369.2 859.1 369.4 867 369.3 858.4 391.4 850.1 413.6 841.6 435.8 833.9 455.4 826.9 475.2 818.2 494.3 812.5 506.7 806.2 518.9 797.5 529.5 788.2 540.3 775.7 548.6 761.8 551.9 760.1 545.6 758.1 539.4 756.2 533.1 773.4 527.4 787.1 513.8 794.8 497.6 796.8 494.2 797.7 490 796 486.3 780.2 447.3 765 408.1 749.1 369.3Z" stroke="#867650" stroke-width="0.09375" fill="#867650" opacity="1"/></svg>